<?xml version="1.0" encoding="utf-8"?>
<!-- Generator: Adobe Illustrator 25.2.0, SVG Export Plug-In . SVG Version: 6.00 Build 0)  -->
<svg version="1.1" xmlns="http://www.w3.org/2000/svg" xmlns:xlink="http://www.w3.org/1999/xlink" x="0px" y="0px"
	 viewBox="0 0 500 500" style="enable-background:new 0 0 500 500;" xml:space="preserve">
<style type="text/css">
	.st0{fill:#FFFF00;}
	.st1{fill:#FAFFFA;}
	.st2{fill:#FFFFFF;}
</style>
<g id="Layer_2">
</g>
<g id="Layer_1">
	<g>
		<g>
			<circle cx="253.7" cy="291.9" r="196.1"/>
			<path d="M253.7,104.3c103.6,0,187.6,84,187.6,187.6s-84,187.6-187.6,187.6S66,395.5,66,291.9S150,104.3,253.7,104.3 M253.7,87.2
				c-27.6,0-54.4,5.4-79.7,16.1c-24.4,10.3-46.3,25.1-65.1,43.9S75.4,187.9,65,212.3c-10.6,25.2-16,52-16,79.6s5.4,54.4,16.1,79.7
				c10.3,24.4,25.1,46.3,43.9,65.1c18.8,18.8,40.7,33.5,65.1,43.9c25.2,10.7,52.1,16.1,79.7,16.1s54.4-5.4,79.7-16.1
				c24.4-10.3,46.3-25.1,65.1-43.9c18.8-18.8,33.5-40.7,43.9-65.1c10.7-25.2,16.1-52.1,16.1-79.7s-5.4-54.4-16.1-79.7
				c-10.3-24.4-25.1-46.3-43.9-65.1s-40.7-33.5-65.1-43.9C308.1,92.6,281.3,87.2,253.7,87.2L253.7,87.2z"/>
		</g>
		<g>
			<path d="M254,3.2c73.5,0.3,132,12.8,215.3,71l-46.8,82.1c-83.2-58.3-95-51.8-168.5-52.1h-0.4h0.4h-0.4
				c-73.5,0.3-85.2-6.2-168.5,52.1l-46.7-82C121.6,16,180.2,3.5,253.7,3.2"/>
			<g>
				<path class="st0" d="M88.7,69.2l22.4,41.7l-4.7,2.5L91.2,85.3l13.3,29.2l-3.4,1.8L84.3,89.8l14.8,27.5l-4.7,2.5L72,78.2l7-3.8
					c1.6,2.4,3.4,5.2,5.4,8.5l6.5,10.2L81.6,73L88.7,69.2z"/>
				<path class="st0" d="M97.6,64.9l21,42.4L113,110L92,67.6L97.6,64.9z"/>
				<path class="st0" d="M106.2,60.8l15.9,34.3l3.4-1.6l4,8.6l-9,4.2l-19.9-42.9L106.2,60.8z"/>
				<path class="st0" d="M117.5,55.8l18.8,43.4l-5.6,2.4l-18.8-43.4L117.5,55.8z"/>
				<path class="st0" d="M132.4,49.8l3.5,8.8l-3.4,1.3l13.9,35.2l-5.7,2.3l-13.9-35.2l-3.4,1.3l-3.5-8.8L132.4,49.8z"/>
				<path class="st0" d="M144,45.7l18.9,43.5l-5.9,2.1l-3.1-7.9l-2.1,0.7l2.4,8.2l-6,2.1l-12.6-45.7L144,45.7z M150.9,75.5
					c-2.1-5-4.5-11.1-7.4-18.5c2.4,8.8,4.2,15.2,5.4,19.2L150.9,75.5z"/>
				<path class="st0" d="M155.6,42.1l13.8,45.3l-5.9,1.8l-13.8-45.3L155.6,42.1z"/>
				<path class="st0" d="M159.4,40.9l4.2-1.1c2.8-0.7,4.8-1,5.9-0.8c1.1,0.2,2.2,1.1,3.3,2.7c1.1,1.6,2.1,4.4,3.2,8.3
					c0.9,3.6,1.3,6,1.2,7.4s-0.8,2.3-2,2.9c1.3,0.3,2.3,0.9,3,1.7c0.7,0.9,1.1,1.7,1.5,2.5c0.4,0.8,0.9,3,1.9,6.7l3.1,12.1l-5.5,1.4
					l-4-15.2c-0.6-2.5-1.1-3.9-1.5-4.5c-0.3-0.5-0.9-0.7-1.7-0.5l5.4,20.7l-6,1.5L159.4,40.9z M167.4,47.2l2.6,10.2
					c0.7-0.2,1.1-0.5,1.3-0.9s0-1.7-0.5-3.7l-0.7-2.5c-0.4-1.5-0.8-2.4-1.1-2.8S168.1,47.1,167.4,47.2z"/>
				<path class="st0" d="M176.8,36.6l10-2.1l1.9,9.3l-4,0.8l1.8,8.8l3.8-0.8l1.8,8.8l-3.8,0.8l2.1,10.2l4.4-0.9l1.9,9.3L186.3,83
					L176.8,36.6z"/>
				<path class="st0" d="M205.8,45.9l-5.6,0.9l-0.5-3.5c-0.3-1.6-0.5-2.6-0.7-3.1c-0.2-0.4-0.5-0.6-0.8-0.5c-0.4,0.1-0.6,0.4-0.7,1
					s0,1.5,0.1,2.8c0.2,1.6,0.5,2.7,0.9,3.5c0.3,0.8,1,1.6,2.2,2.6c3.2,2.8,5.3,5.2,6.4,7.1c1,1.9,1.9,5.2,2.6,9.8
					c0.5,3.3,0.7,5.8,0.6,7.5c-0.1,1.6-0.7,3.1-1.6,4.3c-0.9,1.2-2.2,2-3.6,2.2c-1.6,0.3-3.1-0.1-4.5-1.2c-1.3-1-2.3-2.5-3-4.4
					c-0.7-1.8-1.3-4.5-1.8-8l-0.5-3.1l5.6-0.9l0.9,5.7c0.3,1.8,0.5,2.9,0.8,3.3c0.2,0.5,0.6,0.7,1,0.6s0.7-0.4,0.8-1.1
					s0-1.6-0.2-2.9c-0.4-2.8-0.9-4.5-1.4-5.3s-1.7-2.1-3.5-3.8c-1.8-1.8-3.1-3.1-3.7-3.9c-0.6-0.8-1.2-2-1.8-3.6
					c-0.6-1.5-1.1-3.6-1.5-6c-0.6-3.6-0.8-6.2-0.6-8c0.2-1.7,0.7-3.1,1.6-4.2c0.9-1.1,2-1.8,3.5-2c1.6-0.2,3,0,4.3,0.9
					c1.3,0.8,2.2,2,2.8,3.5s1.2,4.1,1.8,7.8L205.8,45.9z"/>
				<path class="st0" d="M228,43.6l-5.7,0.5l-0.3-3.5c-0.1-1.6-0.3-2.7-0.5-3.1c-0.2-0.4-0.4-0.6-0.8-0.6c-0.4,0-0.6,0.4-0.8,1
					c-0.1,0.6-0.1,1.5,0,2.8c0.1,1.6,0.4,2.7,0.6,3.5c0.3,0.8,0.9,1.7,2,2.7c3,3,5,5.5,5.9,7.5s1.5,5.3,2,10
					c0.3,3.4,0.3,5.9,0.1,7.5c-0.3,1.6-0.9,3-1.9,4.2s-2.3,1.8-3.8,2c-1.6,0.1-3.1-0.3-4.4-1.5s-2.2-2.7-2.7-4.5
					c-0.5-1.9-1-4.6-1.3-8.1l-0.3-3.1l5.7-0.5l0.5,5.7c0.2,1.8,0.3,2.9,0.5,3.4s0.5,0.7,0.9,0.7s0.7-0.4,0.8-1s0.2-1.6,0-2.9
					c-0.2-2.8-0.6-4.6-1.1-5.4c-0.5-0.8-1.5-2.2-3.3-4c-1.7-1.9-2.8-3.3-3.4-4.1s-1.1-2.1-1.6-3.7c-0.5-1.6-0.8-3.6-1-6.1
					c-0.3-3.6-0.3-6.3,0-8s0.9-3.1,1.9-4.1c0.9-1,2.1-1.6,3.6-1.7c1.6-0.1,3,0.3,4.2,1.2c1.2,0.9,2.1,2.2,2.6,3.7s0.9,4.2,1.3,7.9
					L228,43.6z"/>
				<path class="st0" d="M241.5,28.6l5.5,47.1l-6.3,0.3l-0.7-8.5l-2.2,0.1v8.5l-6.4,0.3l1.1-47.4L241.5,28.6z M239.5,59.2
					c-0.5-5.3-1.1-12-1.8-19.8c-0.2,9.1-0.4,15.7-0.3,19.9L239.5,59.2z"/>
				<path class="st0" d="M261.5,28.5l-0.2,47.3h-5.4l-3.1-21.5l-0.1,21.5h-5.1l0.2-47.3h5.1l3.3,21.3l0.1-21.3L261.5,28.5z"/>
				<path class="st0" d="M278,43.6l-5.7-0.3l0.2-3.5c0.1-1.6,0.1-2.7-0.1-3.1c-0.1-0.5-0.4-0.7-0.7-0.7c-0.4,0-0.7,0.3-0.9,0.9
					c-0.2,0.6-0.4,1.5-0.4,2.7c-0.1,1.6,0,2.8,0.1,3.6c0.2,0.8,0.7,1.8,1.6,3c2.6,3.4,4.1,6.1,4.8,8.3c0.6,2.1,0.8,5.5,0.5,10.1
					c-0.2,3.4-0.5,5.8-1,7.4s-1.3,2.9-2.5,3.9s-2.5,1.5-4,1.4c-1.6-0.1-3-0.8-4.1-2.1s-1.8-2.9-2-4.9c-0.3-1.9-0.3-4.7-0.1-8.2
					l0.2-3.1l5.7,0.3l-0.3,5.8c-0.1,1.8-0.1,2.9,0.1,3.4c0.1,0.5,0.4,0.8,0.8,0.8s0.7-0.3,1-0.9c0.2-0.6,0.4-1.6,0.4-2.8
					c0.1-2.8,0.1-4.6-0.3-5.5c-0.3-0.9-1.2-2.4-2.7-4.4c-1.4-2.1-2.4-3.6-2.8-4.6c-0.4-0.9-0.8-2.2-1-3.9c-0.2-1.6-0.3-3.7-0.2-6.2
					c0.2-3.6,0.6-6.3,1.1-7.9s1.4-2.9,2.4-3.8c1.1-0.9,2.4-1.3,3.8-1.2c1.6,0.1,2.9,0.7,4,1.8c1.1,1.1,1.7,2.4,2,4s0.3,4.3,0.1,8
					V43.6z"/>
				<path class="st0" d="M288.6,30.2l10.4,1.2l-1.1,9.4l-4.2-0.5l-1,8.9l3.8,0.4l-1,8.9l-3.8-0.4l-2.2,19.8l-6.1-0.7L288.6,30.2z"/>
				<path class="st0" d="M302.1,31.7l4.3,0.7c2.9,0.5,4.8,1,5.7,1.6c0.9,0.6,1.6,1.9,1.9,3.8c0.4,1.9,0.2,4.9-0.4,8.9
					c-0.6,3.6-1.2,6-1.8,7.2c-0.7,1.2-1.7,1.8-3,1.8c1.1,0.8,1.8,1.7,2,2.8c0.3,1.1,0.4,2,0.3,2.9c0,0.9-0.3,3.2-0.9,6.9l-2,12.3
					l-5.6-0.9l2.5-15.5c0.4-2.5,0.5-4.1,0.4-4.7c-0.1-0.6-0.6-1-1.4-1.1l-3.3,21.1l-6.1-1L302.1,31.7z M306.9,40.7l-1.7,10.4
					c0.7,0.1,1.2,0,1.5-0.3s0.7-1.5,1-3.6l0.4-2.6c0.2-1.5,0.3-2.5,0.1-3C308,41.1,307.6,40.8,306.9,40.7z"/>
				<path class="st0" d="M327.9,64.7c-1,4.6-1.8,7.9-2.3,9.8s-1.3,3.6-2.2,5.1s-2,2.5-3.1,3.2s-2.4,0.8-3.7,0.5
					c-1.2-0.3-2.3-0.9-3.1-1.9c-0.8-1-1.3-2.4-1.6-4.2s-0.2-3.6,0.1-5.5c0.3-1.9,1-5.3,2-10l1.7-7.9c1-4.6,1.8-7.9,2.3-9.8
					s1.3-3.6,2.2-5.1s2-2.5,3.1-3.2c1.2-0.6,2.4-0.8,3.7-0.5c1.2,0.3,2.3,0.9,3.1,1.9c0.8,1,1.3,2.4,1.6,4.2s0.2,3.6-0.1,5.5
					c-0.3,1.9-1,5.3-2,10L327.9,64.7z M325.2,48.2c0.5-2.2,0.7-3.5,0.7-4.2c0-0.6-0.2-1-0.5-1.1s-0.6,0.1-0.9,0.6
					c-0.3,0.4-0.7,1.9-1.2,4.2l-4.7,21.6c-0.6,2.7-0.9,4.4-0.9,5s0.2,1,0.6,1.1s0.8-0.2,1-0.9c0.3-0.7,0.7-2.4,1.3-5.1L325.2,48.2z"
					/>
				<path class="st0" d="M351.2,42.4L338.6,88l-5.2-1.4L336,65l-5.7,20.7l-5-1.4L338,38.7l5,1.4l-2.3,21.5l5.7-20.5L351.2,42.4z"/>
				<path class="st0" d="M367.1,47.5l-3,9l-3.5-1.1l-11.9,35.9l-5.8-1.9l11.9-35.9l-3.5-1.1l3-9L367.1,47.5z"/>
				<path class="st0" d="M375.4,50.6L358.9,95l-5.8-2.1l16.4-44.4L375.4,50.6z"/>
				<path class="st0" d="M378.8,51.9l9.5,3.9l-3.6,8.8l-3.8-1.5l-3.4,8.3l3.6,1.4l-3.4,8.3l-3.6-1.4l-3.9,9.6l4.2,1.7l-3.6,8.8
					l-9.9-4L378.8,51.9z"/>
				<path class="st0" d="M391.6,57.2l4,1.8c2.6,1.2,4.3,2.2,5.1,3.1c0.8,0.8,1,2.2,0.9,4.2c-0.2,1.9-1.1,4.8-2.8,8.4
					c-1.5,3.4-2.8,5.5-3.7,6.5c-0.9,1-2.1,1.3-3.4,1c0.9,1.1,1.3,2.1,1.2,3.2c0,1.1-0.2,2.1-0.4,2.9c-0.3,0.8-1.2,3-2.8,6.4
					l-5.2,11.4l-5.2-2.4l6.5-14.3c1-2.3,1.6-3.8,1.7-4.4s-0.3-1.1-1.1-1.5l-8.8,19.4l-5.6-2.5L391.6,57.2z M393.9,67.1l-4.4,9.6
					c0.6,0.3,1.1,0.3,1.6,0.1c0.4-0.2,1-1.3,1.9-3.2l1.1-2.4c0.6-1.4,0.9-2.3,0.9-2.9C394.9,67.8,394.5,67.4,393.9,67.1z"/>
				<path class="st0" d="M407.4,64.5l9.2,4.6l-4.2,8.5l-3.7-1.8l-4,8l3.4,1.7l-4,8.1l-3.4-1.7l-4.6,9.3l4,2l-4.2,8.5l-9.6-4.8
					L407.4,64.5z"/>
				<path class="st0" d="M424.3,89.4l-5-2.7l1.7-3.1c0.8-1.4,1.2-2.4,1.3-2.9c0.1-0.5,0-0.8-0.3-0.9c-0.3-0.2-0.7,0-1.2,0.4
					s-1,1.2-1.6,2.3c-0.7,1.4-1.2,2.5-1.4,3.3c-0.2,0.8-0.1,1.9,0.2,3.4c0.9,4.2,1.1,7.3,0.8,9.5s-1.6,5.3-3.8,9.4
					c-1.6,3-2.9,5.1-4.1,6.3c-1.1,1.2-2.4,2-3.9,2.5c-1.5,0.4-2.9,0.3-4.2-0.4c-1.5-0.8-2.4-2-2.8-3.6s-0.4-3.4,0.2-5.3
					s1.7-4.4,3.4-7.5l1.5-2.7l5,2.7l-2.7,5.1c-0.8,1.6-1.3,2.6-1.4,3.1s0,0.9,0.4,1.1s0.8,0.1,1.3-0.4s1-1.3,1.6-2.4
					c1.3-2.5,2-4.1,2.1-5.1c0.1-0.9-0.1-2.7-0.5-5.1c-0.4-2.5-0.6-4.3-0.6-5.3s0.2-2.4,0.7-3.9c0.5-1.6,1.3-3.5,2.5-5.7
					c1.7-3.2,3.2-5.4,4.4-6.7c1.2-1.3,2.5-2.1,3.8-2.4s2.7-0.2,4,0.5c1.4,0.8,2.4,1.9,2.9,3.3s0.5,2.9,0.1,4.5s-1.5,4-3.3,7.3
					L424.3,89.4z"/>
			</g>
		</g>
		<path class="st0" d="M254,104.3v375.3c103.5-0.2,187.3-84.1,187.3-187.6S357.5,104.5,254,104.3z"/>
		<g>
			<g>
				<path class="st1" d="M302.6,144c-8,0-27.5-13.3-40.7-13.3c-13.1,0-27.5,7.4-27.5,7.4h5c0,7.7-34.5,5.8-34.5,5.8
					s19.3-17.3,62.2-17.3s96.4,38.8,96.4,38.8S310.9,144,302.6,144z"/>
				<path d="M267,126.7c42.9,0,96.4,38.8,96.4,38.8S310.9,144,302.6,144c-8,0-27.5-13.3-40.7-13.3c-13.1,0-27.5,7.4-27.5,7.4h5
					c0,5.2-15.7,6-25.9,6c-4.9,0-8.5-0.2-8.5-0.2S224.1,126.7,267,126.7 M267,119.8c-45,0-66,18.3-66.8,19.1l4.2,12
					c0.2,0,3.9,0.2,8.9,0.2c7.2,0,13.3-0.4,17.9-1.2c3.5-0.6,6.3-1.4,8.5-2.5c3.8-1.9,5.4-4.5,6.1-6.7c4.6-1.6,10.6-3.2,16.1-3.2
					c5.9,0,15,4,22.2,7.3c7.5,3.3,13.4,6,18.4,6c0.8,0,6.1,0.8,31.6,10.5c13.7,5.2,26.5,10.5,26.7,10.5l6.7-12
					c-0.6-0.4-14-10.1-33-20C308.6,126.5,286,119.8,267,119.8L267,119.8z"/>
				<polygon points="251.4,156.3 247.1,169.8 254.4,188.3 259.7,200.4 263.7,214.9 288.3,218 320.1,210.1 314.8,194.2 285.2,164.2 
									"/>
			</g>
			<g>
				<g>
					<g>
						<path d="M258.4,144c50.7,0,51.5,5.2,51.5,5.2c15.9,0,25.7,15.6,25.7,15.6l6.1-3.7c33.1,0,55.1,51.3,55.1,51.3
							s-5.2-6.5-9.5-6.5s-4,10.9-4,10.9l16.2,16.2v-8.2c2.9,0,8.3,8.8,8.3,8.8l1.8,33.6l-2.7,1.7l-14.4-27.5h4.9v-4.9
							c0,0-28.3-24-36.3-24s-23.6,18.3-23.6,23.2s-9.5,11.4-10.8,11.4s-10.8-1.8-10.8-1.8h-8.3c-6.5,0-16-6.8-16-6.8
							c-0.5,0-1.3,0-2.2,0c-0.6,0-1.3,0-2,0l9.1-9.4V224h-18.9c-1.8,0-3.6-4.4-4.3-7.4l-0.1-0.6l-0.6-0.2c0,0-0.7-0.2-1.5-0.2
							c-0.7,0-1.6,0.2-2.4,0.7c-1.3,0.9-2,2.6-2,5c0,5.6,5.6,11.8,7.1,13.3v5.1c-4.5-2-12.4-6.3-12.4-10.7c0-6.5,1-10.4,1-10.5v-0.3
							c0-2.4-1.5-5-2.5-6.4c3.3-1.3,6.5-3,7.4-3.6l10.6-0.3c0.1,0.8,0.4,1.8,1.1,2.7c1.5,1.8,4.2,2.8,8.1,2.8
							c9.5,0,22.8-9.1,23.4-9.5l3-2.1H310c-14.1,0-21.7-3.8-25.8-5.9c-1.6-0.8-2.5-1.3-3.4-1.3c-1.3,0-2.8,0.7-4.1,1.3
							c-1.3,0.6-2.6,1.2-3.6,1.2c-1.4,0-4.6-2.2-6.8-3.9v-0.7h16.8l8.8-9h-11.4v-4.6l-21.8-4.8c0.1-0.1,0.2-0.2,0.3-0.3
							c1.7-1.4,2.5-3.5,2.5-6.5c0-1.2-0.5-2.3-1.5-3.2c-4.1-3.9-16.4-4.5-24.3-4.5c-3.4,0-5.9,0.1-6.7,0.2l0.1,2.3
							c1.5-0.1,3.6-0.1,6.1-0.1c8.2,0,19.9,0.7,23.2,3.9c0.5,0.5,0.8,1,0.8,1.6c0,2.2-0.6,3.8-1.7,4.7c-1,0.8-2.3,1-3.1,1
							c-0.5,0-0.9-0.1-0.9-0.1l-0.5,2.2l25.1,5.5v5h8.3l-4.3,4.4h-18.2v4.1l0.4,0.3c1,0.8,5.8,4.8,8.7,4.8c1.6,0,3.1-0.7,4.6-1.4
							c1.1-0.5,2.3-1.1,3.2-1.1c0.3,0,1.4,0.6,2.3,1c3.6,1.8,10.7,5.4,23,6.1c-4.5,2.7-12.8,7.1-18.9,7.1c-3.1,0-5.3-0.7-6.3-1.9
							c-0.9-1-0.7-2.2-0.7-2.2l0.3-1.4l-13.9,0.3l-0.3,0.1c-2.5,1.4-9.7,5.1-13.2,5.1h-6.9L252,230c-2.1,1.9-8.6,8-10.2,12.5
							c-1.9-1.6-5.4-5.8-5.4-14.7v-0.5l-16-15.3c2.9-3.5,11.1-13.6,11.1-17.1v-1.1h-7.2v2.3h4.6c-1.3,3.2-6.6,10.1-10.6,14.9
							c-0.6,0-1.6-0.1-2.5-0.9c-1.1-0.9-1.6-2.6-1.6-4.9c0-7,5-9.7,5.2-9.8l-1.1-2c-0.3,0.1-6.4,3.4-6.4,11.8c0,3,0.8,5.3,2.4,6.6
							c0.6,0.5,1.2,0.8,1.8,1l-8,6.8l-3.6-3.6c-11.3-17.3-11.6-17.5-11.7-17.6l-1.7,1.5c0.4,0.6,6.6,9.9,11,16.6
							c-2.4,2-9,8.4-9,15.7c0,5.2,4.5,8.8,8.5,11.9c2.6,2.1,5.1,4,5.1,5.6c0,2.3,0.4,3.8,1.4,4.7c1,1,2.3,1.1,3.5,1.1
							c0.2,0,0.4,0,0.6,0h0.3c1.9,0,2.3-2.6,3-7c0.8-5.4,1.9-12.7,5.9-12.7c7.1,0,18.3,12.1,18.3,16.9c0,0.7-0.2,1.2-0.7,1.7
							c-1.3,1.1-3.8,1.4-5.9,1.4c-1,0-1.9-0.1-2.5-0.1l-2.6-0.3l5.1,7l-18.7,9.7v7.6l-7.4,5.9l0.2,0.3c-0.2-0.1-0.3-0.2-0.5-0.2
							c-0.3,0-0.6,0.2-0.6,0.2c-2-5-20.2-16.3-20.2-16.3l8.3-6.5l-11.9-6.9c0,0-0.4,2.6-5.9,2.6c-5.4,0-13.5-3.6-13.5-3.6
							c-12.1,0-12.7,11.7-15.3,11.7s-5.9-0.4-5.9-23.2s25.5-45.2,25.5-45.2l-0.1,1.1l10.3,0.5l9.8,0.6c0.2,0,0.4,0,0.6,0l0.1-2.3
							h-0.6c-2.8-0.3-12.1-2.7-18.2-4.4l15.2-16.4c0-4.2,8.9-5,15-5c3.2,0,5.7,0.2,5.7,0.2v5.4c0,0,12.8-2,15.4-2
							c2.6,0,19.3,9.1,19.3,9.1c4.6,0,4.4-9.5,4.4-9.5L227.2,165l1.8-3.7c-6.7,0-19,3.3-19,3.3v-5.7h-5
							C219.1,144.8,258.4,144,258.4,144 M258.4,137.1L258.4,137.1h-0.2c-0.4,0-10.5,0.2-22.4,2.3c-16.8,2.9-28.8,7.8-35.7,14.7
							l-11.8,11.8h14.8v0.3c-1,0-2.3-0.1-3.7-0.1c-4.6,0-8.4,0.4-11.4,1.1c-6.4,1.5-8.9,4.7-9.9,7.4l-13.9,15l-7.7,8.3l1.3,0.4
							c-2.5,2.6-5.7,6.2-8.9,10.4c-9.3,12.4-14.1,24.3-14.1,35.2c0,11.3,0.7,18.3,2.4,22.6c1.1,2.8,2.7,4.9,4.8,6.1
							c2.3,1.4,4.6,1.4,5.5,1.4c1.5,0,4.4-0.5,6.7-3.6c0.7-0.9,1.2-1.9,1.7-2.9c1.6-3.1,2.7-4.8,5.7-5.2c3.1,1.3,9.4,3.6,14.8,3.6
							c1.3,0,2.4-0.1,3.5-0.3l-6,4.7l8.4,5.2c7.9,4.9,16,11.1,17.5,13.3l3.7,9.3l3.7-3.5l38.7,28.7l-29.2-36.5l2-1.6l2.6-2.1v-3.3
							v-3.4l15-7.8l7.1-3.7l-2.5-3.5c1-0.5,2-1,2.7-1.7c2-1.7,3.1-4.2,3.1-6.9c0-0.9-0.1-1.8-0.3-2.6l2-5.4c0.6-1.6,3.5-5.3,8-9.4
							c1.2,1.9,3,3.8,5.4,5.6c3.4,2.5,7.3,4.3,9.3,5.2l9.7,4.2v-4.7l7-0.2c0.6,0,1.2,0,1.9,0c0,0,0,0,0.1,0
							c3.7,2.4,11.4,6.8,18.1,6.8h7.6c9.5,1.8,10.8,1.8,11.4,1.8c1.8,0,3.5-0.6,6-2.2c1.5-0.9,3.1-2.2,4.5-3.4c4.6-4,7-8.1,7.2-12.1
							c0.5-1.4,3.1-5.3,7.4-9.8c5-5.1,8.3-6.8,9.3-7.1c1,0.3,5.4,1.9,17.8,11.1c1.8,1.3,3.5,2.7,5.2,4h-2.9l5.3,10.1l14.4,27.5
							l3.4,6.6l6.3-3.9l2.7-1.7l3.5-2.2l-0.2-4.1l-1.1-20.1l-0.5-9.5l-0.2-4l-0.1-1.8L414,230c-0.1-0.1-1.6-2.6-3.5-5
							c-0.3-0.4-0.7-0.9-1-1.3l-6-14c-0.2-0.6-5.9-13.7-15.9-27.1c-6-8-12.4-14.4-18.9-19.1c-8.6-6.2-17.6-9.3-26.6-9.3h-1.9l-1.7,1
							l-0.9,0.5c-4.7-5.2-13.2-12.4-24.8-13.3l0,0c-1.8-1-4.4-1.9-7.9-2.5C295.4,138,279.9,137.1,258.4,137.1z M218,169.8
							c1-0.2,2-0.4,3.1-0.6l0.8,0.6c-0.5-0.1-1-0.1-1.4-0.1C220,169.7,219.1,169.7,218,169.8L218,169.8z M207.7,229l4.9-4.1l6-5.1
							l11,10.5c0,0.3,0,0.7,0.1,1c-2.5-1.3-5.3-2.3-8.2-2.3c-2.8,0-7.9,1.2-10.6,9c-0.4,1.3-0.8,2.6-1.1,4c-1.2-1.1-2.5-2.2-3.8-3.2
							c-2.6-2.1-5.9-4.6-5.9-6.5c0-2.4,1.6-5.1,3.5-7.4L207.7,229L207.7,229z M279.8,231.1h5.4l-2.7,2.8l-1.8,1.9v-1V232
							L279.8,231.1L279.8,231.1z"/>
						<path d="M293.6,387.9c7,0,7.8,6.4,7.8,6.4s-8.3,11.5-12,11.5c0,0-3.6-9.8-12-9.8C277.4,396.1,286.6,387.9,293.6,387.9
							 M293.6,381c-9.2,0-19,8.2-20.8,9.9l4.6,12.1c3.3,0,5.5,5.3,5.6,5.3v-0.1l6.5,4.5c3.9,0,7.5-2.3,12.6-8.1
							c2.7-3.1,4.9-6.2,5-6.3l1.3-4.9C307.7,388.5,303.3,381,293.6,381L293.6,381z"/>
						<path d="M241,255.8c2.3,0.4,4.4,1,5.4,1.5l-3.5,3.8l3.4,8.2c-2.7,0.5-31.1,6.7-31.1,21.6h2.3c0-13.5,29.2-19.3,29.3-19.4
							c0.7,0,1.5,0,2.2,0c5.9,0,13.9,0.6,15.7,2.4c0.2,0.2,0.2,0.4,0.2,0.4c0,3.9-4.9,8.1-4.9,8.1l-1.4,1.2l24.7,11.5l-3.6-4.1
							c-1.6-1.9-1.2-4.5-0.6-6.3c4.1,3.7,16.2,7,22.7,8.6c0.2,34.8,13.9,39.3,18.1,39.8c-0.5,1.6-2.1,5.2-3.6,8.3
							c-5,1-18.2,10.8-20.9,12.8l1.4,1.8c6.1-4.6,16.5-11.8,19.8-12.4l3.5,3.5c-4.9,2.5-8.7,12.3-9.8,15.4
							c-6.3-0.4-12.2-4.7-12.3-4.8l-0.3-0.2h-16.1c-1.6,0-4.7,2.8-14.5,12.9c-1.3,1.3-2.5,2.6-3.4,3.5c-1.1,1.1-2.3,1.6-3.5,1.7
							c-1.2,0-2.2-0.6-2.9-1.1c2.7-4,10.6-15.9,10.6-19.2c0-3.4-5.5-9.5-7.3-11.4c0.2-2.6,1.8-7.9,2.5-9.9l0.1-0.4
							c0-5-4.1-12.7-9.6-12.7c-2.7,0-6.4-7.7-8.1-13.2l-0.3-0.8h-0.8c-4.7,0-9,2.1-9.2,2.2l1,2.1c0,0,3.5-1.7,7.4-1.9
							c1.2,3.6,5.1,14,10,14c3.8,0,7.2,6.3,7.3,10.2c-0.4,1.2-2.5,7.9-2.5,10.9v0.5l0.3,0.3c2.7,2.8,7,8,7,10.2
							c0,2.1-6.3,12.2-10.8,18.7l-0.5,0.8l0.6,0.7c0.1,0.1,2.2,2.3,5.2,2.4h0.1c1.8,0,3.5-0.8,5.1-2.3c0.9-0.9,2.1-2.1,3.4-3.5
							c3.9-4,11-11.3,12.7-12.1c0.7,0.4,2.7,1.9,2.8,5.3l-13.7,12l0.8,0.9c-8.6,0.6-21.6,2.6-21.6,2.6s2.2-0.6,2.2-3.9
							s-3.6-8.2-3.6-8.2c0-24.9-7.9-22.2-9.6-23.9c-0.2-0.2-0.4-0.3-0.8-0.3c-3.1,0-12.1,6-12.1,6c-4.2,0-7.1-2.7-7.1-2.7l5.9-5.8
							l-6.4-9.7h9.1v-6.9c1.7-0.7,6.5-2.6,10.4-2.6v-2.3c-5.4,0-11.7,3-12,3.1l-0.7,0.3v6.1h-8.3l-0.3-0.5c-8.3,0-17.2,3.3-21.4,3.3
							s-4.9-3.3-4.9-3.3c15,0,16.7-9.4,16.7-13.6l0.4,1.1c2.2-0.8,11.9-4.3,14.3-8.7l2.9,2.3l1.4-1.8l-4.1-3.2l-4.4-8.3l-2,1.1
							l4.4,8.2c-0.4,2.6-7.6,6.2-12.9,8.1c0-0.5-0.1-0.8-0.1-0.8s5.3-6.5,5.3-10.8s-3-6.5-3-6.5c0-6.2-0.6-8.9-1.2-10.1l0.7,0.9
							l8.2-6.6v-7.3l19.9-10.3l-3.7-5.1c2.4,0,5.8-0.3,7.7-2C240.7,256.1,240.8,256,241,255.8 M238.3,248.3L236,251
							c-0.4,0.1-1.3,0.3-3.2,0.3l-13.5,0.1l6.9,9.5l-12.7,6.6l-3.7,1.9v4.2v4l-5.6,4.5l3.2,4l-3,2l-4.4-12.8l-0.2,36l-0.6,0.7l0.5,3
							c0,0,0,0.1,0,0.2v0.2v0.4c0,2,0,6.7-9.8,6.7h-8.7l1.9,8.4c0.9,4.2,5,8.6,11.6,8.6c2.5,0,5.4-0.6,8.7-1.4
							c2.9-0.6,6-1.3,9.1-1.7l0.2,0.3l2.7,4.1l-1.8,1.8l-5.3,5.1l5.5,4.9c0.8,0.7,5.3,4.4,11.7,4.4h2.1l1.7-1.2
							c2.7-1.8,5.9-3.6,7.8-4.5c0.2,0.1,0.4,0.1,0.5,0.2c0.9,0.3,0.9,0.3,1.3,1c0.8,1.5,2.2,5.5,2.2,15.6v2.2l1.3,1.8
							c1,1.4,2.1,3.5,2.2,4.3c0,0,0-0.1,0-0.2c0,0,0.2-2.1,2.9-2.8l0.3,1.6l-0.4,0.6l0.7,0.5l2.3,10.8c0.1,0,12.8-2,21.1-2.6l13.8-1
							l-5.3-6.1l8.5-7.4l2.5-2.2l-0.2-3.4c0-0.1,0-0.2,0-0.4h4.4c2.7,1.7,8.2,4.7,14.3,5l5.2,0.3l1.7-4.9c2.4-6.8,5.3-10.9,6.4-11.6
							l8.6-4.3l-6.8-6.8l-1-1c1-2,2-4.5,2.5-6.2l2.2-7.7l-8-1c-0.9-0.1-3.3-0.8-5.8-4.3c-2.8-3.9-6.2-12.1-6.3-28.8v-5.4l-5.3-1.3
							c-12.9-3.1-18.4-5.9-19.6-6.9l-8-7.3l-3.3,10.2l-2.7-1.2c1.1-2,2-4.4,2-6.9c0-2-0.8-3.9-2.3-5.4c-1.1-1.1-4.1-4-17.7-4.3
							l-0.9-2.1l0.5-0.5l6.2-6.7l-8.1-4.2c-2.3-1.2-5.9-1.9-7.4-2.2L238.3,248.3L238.3,248.3z"/>
						<path d="M257.7,212.8c0.9,1.2,2.4,3.6,2.4,5.5c-0.2,0.8-1.1,4.7-1.1,10.9c0,6.8,11.9,12,14.9,13.2c-1.1,1.1-1.8,2.5-1.8,4.4
							c0,8.9,3.4,22.5,3.4,22.5c0,4.5,21.8,17.3,25,17.3s10.8-5.1,15.3-5.1s6.2,7.9,6.2,7.9c0,6.6-5.2,17.9-5.2,20.3
							c0,0.7,0.9,2,2.2,3.5c2.6,3,6.3,4.5,10.2,4.5c1.2,0,2.4-0.1,3.6-0.4c0.7-0.2,1.3-0.2,2-0.2c3.5,0,6,2.3,6,4.8
							c0,4.1-12.1,7.7-12.1,7.7s13.9,7.2,13.9,13c0,5.9-3.7,12-3.7,12s6.5,14.5,10.1,14.5s10.5-5,10.5-5l1.2,0.6
							c-3.4,1.6-4.8,8.2-4.9,9l2.2,0.5c0.6-3,2.4-7.5,4.3-7.5v-1.1l1.1,0.6l21.6-19.1c1.3,3.4,0.7,7.3-1.7,10.1l-1.9,2.3
							c-0.4,0-0.8-0.1-1.2-0.1c-2.7,0-5.4,1.1-7.3,3l-1.9,1.9c-2.4,2.4-4,5.5-4.7,8.9l-5.9,4.4c-5.1,3.8-10.6,6.8-16.5,9.1l-3.8,1.5
							c-4.3,1.7-8.8,2.5-13.4,2.5c-0.5,0-1.1,0-1.6,0c5.6-2.2,17.7-7.8,28.2-12.8l-1-2.1c-5,2.4-11.4,5.4-17.1,7.9l-0.6-4.8
							c3.6-1.4,7.3-3.5,6.9-5.7c-0.4-1.9-3.3-2.7-10.2-2.7h-10.2v1.1c0,3.6,1.1,6.1,3.2,7.5c1.3,0.9,2.9,1.2,4.3,1.2
							c1.5,0,2.8-0.3,3.8-0.6l0.6,5c-5.6,2.5-10,4.4-10.8,4.5v1.1c-0.7-0.1-1.3-0.2-2-0.3l0,0l-0.4-0.3c-2.4-1.8-5.3-2.8-8.2-2.8
							c-1.8,0-3.6,0.4-5.4,1.1c-2.7,0-5.5-1.7-8.1-3.8c-5.2-4.4-11.8-6.5-18.6-6.5c-0.6,0-1.1,0-1.7,0c-0.8,0-1.7,0.1-2.5,0.1
							c-0.7,0-1.5,0-2.4,0.1l13.4-11.7v-0.5c0-2.7-0.9-4.6-1.9-5.9h12.2c1.5,1,7.6,5,14.1,5h0.8l0.3-0.8c2-5.9,6.5-15.2,10.2-15.2
							h2.8l-6.7-6.7c4.6-9.1,4-10.2,3.7-10.7l-0.5-0.6h-0.6c-1.7,0-16.8-1.1-16.8-38.5v-0.9l-0.9-0.2c-12.3-2.9-23.1-7.1-23.1-9
							v-4.5l-2.1,3.9c-0.1,0.2-2.2,4-1.4,7.7l-13.7-6.4c1.7-1.7,4.5-5.1,4.5-8.7c0-0.5-0.2-1.3-0.9-2.1c-2.8-2.7-12.4-3-17.2-3
							c-0.1,0-0.2,0-0.3,0l-3.1-7.7l3.5-3.7v-0.5c0-0.6,0-2.4-7.1-3.7c0-0.2,0.1-0.5,0.1-0.8c0-5.9-12-19.2-20.6-19.2
							c-5.9,0-7.2,8.5-8.1,14.6c-0.3,1.8-0.7,4.3-1,5l0,0c-1.3,0-2.1,0-2.5-0.4c-0.5-0.5-0.7-1.5-0.7-3.1c0-2.7-2.8-4.9-6-7.4
							c-3.6-2.8-7.7-6-7.7-10.1c0-6.2,6-12,8.1-13.9l4.4,4.4l10.8-9.1l15.4,14.7c0.2,13.2,7.6,17,8,17.1l1.6,0.8v-1.8
							c0-2.7,5.3-8.5,9.2-12.2c1.3,2.9,4,9.5,4,14v0.7l0.7,0.3c3.7,1.7,7.5,4.2,9,6c-2.7,0.3-8,2.4-17,11.5l1.6,1.6
							c9.9-9.9,14.6-10.8,16.1-10.8c0.3,0,0.5,0.1,0.5,0.1l0,0l1.7,0.9v-1.9c0-3.7-7.6-7.7-10.4-9c-0.3-6.2-4.4-14.7-4.8-15.6
							l-4.9-16.2h3.8C254.5,213.7,256.1,213.3,257.7,212.8 M219,204.3l-4.7,4l-5.9,5l-4.5-4.5l-4.9,4.3
							c-3.9,3.4-10.5,10.5-10.5,19.1c0,7.4,6,12.1,10.3,15.5c1.1,0.9,2.6,2.1,3.3,2.8c0.1,1.7,0.4,4.9,2.7,7.1
							c2.5,2.5,5.6,2.5,7.4,2.5l0,0h4.2l1.9-3.7c0.8-1.6,1.2-3.5,1.8-7.2c0.3-2,0.7-4.3,1.2-6.3c0.3-1.2,0.6-2,0.9-2.4
							c1.5,0.4,4.2,1.8,7.4,4.7c3.3,3.2,5.1,6.2,5.5,7.5l-1,6.3l3.6,0.7l-0.2,0.2l1.7,4.1l3.1,7.7l1.8,4.3h4.7h0.3
							c4.6,0,7.8,0.3,9.9,0.7c-0.3,0.4-0.7,0.9-1.2,1.4l-6.8,7l8.8,4.1l13.7,6.4l12.5,5.8l-1.8-8.8c0.1,0,0.2,0.1,0.3,0.1
							c3.7,1.4,8.1,2.8,12.8,4.1c0.5,15,3.6,26.2,9.2,33.1c2.4,3,5,4.8,7.3,6c-0.4,0.9-0.9,1.9-1.5,3.1l-2.3,4.5l3.4,3.3
							c-1.3,1.5-2.1,3-2.6,3.8c-1.1,1.9-2.3,4.2-3.3,6.6c-2.4-0.7-4.8-2-6.5-3.2l-1.8-1.2H297h-12.2h-14.2l8.5,10.8l-10.3,9
							l-15,13.1l19.9-1c0.9,0,1.6-0.1,2.1-0.1c0.9,0,1.9,0,2.9-0.1c0.4,0,0.9,0,1.3,0c5.4,0,10.4,1.7,14.1,4.9
							c1.8,1.5,3.6,2.8,5.4,3.7L292,396l31.2,1.3l6.3,0.8v-0.7c4.5-0.3,8.9-1.2,13.1-2.9l3.8-1.5c6.5-2.5,12.6-5.9,18.1-10l5.9-4.4
							l2.2-1.6l0.5-2.7c0.4-2,1.3-3.8,2.8-5.2l1.9-1.9c0.6-0.6,1.5-1,2.4-1c0.1,0,0.3,0,0.4,0l3.7,0.4l2.4-2.9l1.9-2.3
							c3.9-4.7,5-11.2,2.8-17l-3.5-9.4l-7.5,6.6l-18.1,16l-6.9-3.5v4.3c-1.5,1.1-3.4,2.2-4.8,2.9c-1.1-1.6-2.6-4.1-3.9-6.8
							c1.3-3,2.9-7.5,2.9-12.1c0-4-2.2-8-6.8-11.9c2.6-1.9,5-4.8,5-8.8c0-6.4-5.8-11.7-12.9-11.7c-1.2,0-2.3,0.1-3.5,0.4
							c-0.7,0.2-1.4,0.2-2.1,0.2c-1.2,0-3.4-0.3-5-2.1c0,0,0-0.1-0.1-0.1c0.2-0.8,0.5-1.6,0.8-2.3c1.7-5.1,3.9-11.6,3.9-16.9v-0.7
							l-0.1-0.7c-1.3-6.2-5.4-13.4-12.9-13.4c-3.9,0-8.1,1.9-11.7,3.5c-1,0.5-2.4,1.1-3.4,1.4c-1.7-0.7-5.2-2.5-9.6-5.3
							c-5.6-3.5-8.2-5.9-9-6.9c-0.4-1.6-3.1-12.9-3.2-20.3l7.2-7.2l-9.7-3.9c-6.1-2.4-10-5.6-10.6-7c0-5.4,0.8-8.7,0.9-9.1l0.2-0.9
							v-1c-0.1-3.7-2.1-7.2-3.8-9.4l-3-4l-4.7,1.5c-1.6,0.5-2.2,0.5-2.2,0.5h-3.8h-9.3l2.7,8.9l3.9,12.9c-1.4,1.4-3.3,3.3-5,5.3
							c-0.4-1.5-0.8-3.4-0.8-5.7v-2.9l-2.1-2l-15.4-14.7L219,204.3z"/>
						<path class="st2" d="M259,229.2c0-6.2,0.9-10.1,1.1-10.9c-0.1-1.9-1.5-4.2-2.4-5.5c-1.6,0.5-3.1,0.9-4.4,0.9h-3.8l4.9,16.2
							c0.4,0.9,4.5,9.4,4.8,15.6c2.7,1.3,10.4,5.4,10.4,9v1.9l-1.7-0.9l0,0c0,0-4.4-1.4-16.6,10.8l-1.6-1.6c9-9,14.3-11.2,17-11.5
							c-1.5-1.8-5.4-4.3-9-6l-0.7-0.3v-0.7c0-4.5-2.7-11.2-4-14c-4,3.7-9.2,9.4-9.2,12.2v1.8l-1.6-0.8c-0.3-0.2-7.8-4-8-17.1
							l-15.4-14.7l-10.8,9.1l-4.4-4.4c-2.2,1.9-8.1,7.7-8.1,13.9c0,4.1,4.1,7.3,7.7,10.1c3.2,2.5,6,4.7,6,7.4c0,1.6,0.2,2.7,0.7,3.1
							c0.4,0.4,1.2,0.4,2.5,0.4l0,0c0.4-0.7,0.8-3.2,1-5c0.9-6.2,2.2-14.6,8.1-14.6c8.6,0,20.6,13.3,20.6,19.2c0,0.3,0,0.5-0.1,0.8
							c7.1,1.3,7.1,3.1,7.1,3.7v0.5l-3.5,3.7l3.1,7.7c4.7,0,14.7,0.3,17.6,3c0.8,0.7,0.9,1.5,0.9,2.1c0,3.5-2.8,6.9-4.5,8.7
							l13.7,6.4c-0.8-3.7,1.3-7.5,1.4-7.7l2.1-3.9v4.5c0,1.9,10.8,6.1,23.1,9l0.9,0.2v0.9c0,37.5,15.1,38.5,16.8,38.5h0.6l0.5,0.6
							c0.3,0.5,0.9,1.5-3.7,10.7l6.7,6.7H322c-3.7,0-8.2,9.3-10.2,15.2l-0.3,0.8H311c-6.5,0-12.7-4-14.1-5h-12.2
							c1,1.3,1.9,3.1,1.9,5.9v0.5L273,377.9c0.9,0,1.7-0.1,2.4-0.1c0.8,0,1.7,0,2.5-0.1c7.3-0.4,14.7,1.7,20.3,6.4
							c2.5,2.1,5.4,3.8,8.1,3.8c4.5-1.9,9.7-1.3,13.6,1.7l0.4,0.3l0,0c0.7,0.1,1.3,0.2,2,0.3v-1.1c0.8-0.1,5.3-2,10.8-4.5l-0.6-5
							c-1.9,0.5-5.5,1.2-8.1-0.6c-2.1-1.4-3.2-3.9-3.2-7.5v-1.1h10.2c6.9,0,9.9,0.8,10.2,2.7c0.4,2.2-3.4,4.3-6.9,5.7l0.6,4.8
							c5.7-2.6,12.1-5.6,17.1-7.9l1,2.1c-10.4,4.9-22.6,10.6-28.2,12.8c5.1,0.2,10.2-0.6,15-2.5l3.8-1.5c5.9-2.3,11.4-5.3,16.5-9.1
							l5.9-4.4c0.6-3.4,2.2-6.4,4.7-8.9l1.9-1.9c2.2-2.2,5.4-3.3,8.5-3l1.9-2.3c2.3-2.8,3-6.7,1.7-10.1L363.5,366l-1.1-0.6v1.1
							c-1.9,0-3.6,4.5-4.3,7.5l-2.2-0.5c0.2-0.8,1.6-7.4,4.9-9l-1.2-0.6c0,0-6.9,5-10.5,5S339,354.4,339,354.4s3.7-6.2,3.7-12
							c0-5.9-13.9-13-13.9-13s12.1-3.5,12.1-7.7c0-2.9-3.5-5.6-8-4.6c-5.1,1.2-10.5-0.1-13.9-4.1c-1.3-1.5-2.2-2.8-2.2-3.5
							c0-2.3,5.2-13.6,5.2-20.3c0,0-1.6-7.9-6.2-7.9c-4.5,0-12.1,5.1-15.3,5.1c-3.2,0-25-12.8-25-17.3c0,0-3.4-13.6-3.4-22.5
							c0-1.8,0.7-3.3,1.8-4.4C270.9,241.2,259,236,259,229.2z"/>
					</g>
					<path class="st2" d="M284.2,365.1c-0.2-3.4-2.1-4.9-2.8-5.3c-1.7,0.8-8.9,8.1-12.7,12.1c-1.3,1.4-2.5,2.6-3.4,3.5
						c-1.6,1.5-3.3,2.3-5.1,2.3h-0.1c-3,0-5.1-2.3-5.2-2.4l-0.6-0.7l0.5-0.8c4.5-6.5,10.8-16.7,10.8-18.7c0-2.1-4.3-7.4-7-10.2
						l-0.3-0.3v-0.5c0-3,2.1-9.6,2.5-10.9c-0.1-3.9-3.5-10.2-7.3-10.2c-4.9,0-8.8-10.3-10-14c-3.9,0.2-7.3,1.9-7.4,1.9l-1-2.1
						c0.2-0.1,4.5-2.2,9.2-2.2h0.8l0.3,0.8c1.7,5.5,5.4,13.2,8.1,13.2c5.5,0,9.6,7.7,9.6,12.7l-0.1,0.4c-0.6,1.9-2.3,7.3-2.5,9.9
						c1.8,1.9,7.3,8,7.3,11.4c0,3.3-7.9,15.2-10.6,19.2c0.6,0.5,1.7,1,2.9,1.1c1.1-0.1,2.4-0.5,3.5-1.7c0.9-0.9,2.1-2.1,3.4-3.5
						c9.8-10.1,12.9-12.9,14.5-12.9h16.1l0.3,0.2c0.1,0,6,4.4,12.3,4.8c1.1-3.1,4.9-13,9.8-15.4l-3.5-3.5
						c-3.3,0.6-13.7,7.8-19.8,12.4l-1.4-1.8c2.7-2,15.8-11.8,20.9-12.8c1.6-3.1,3.2-6.7,3.6-8.3c-4.2-0.6-17.9-5-18.1-39.8
						c-6.5-1.6-18.6-4.8-22.7-8.6c-0.6,1.8-1,4.5,0.6,6.3l3.6,4.1l-24.7-11.5l1.4-1.2c0,0,4.9-4.2,4.9-8.1c0-0.1,0-0.2-0.2-0.4
						c-2.1-2-12.1-2.5-18-2.4c-0.1,0-29.3,5.9-29.3,19.4H215c0-15,28.5-21.1,31.1-21.6l-3.4-8.2l3.5-3.8c-1-0.5-3.1-1.1-5.4-1.5
						c-0.1,0.2-0.3,0.3-0.5,0.5c-2,1.7-5.4,2-7.7,2l3.7,5.1l-19.9,10.3v7.3l-8.2,6.6l-0.7-0.9c0.6,1.1,1.2,3.9,1.2,10.1
						c0,0,3,2.2,3,6.5s-5.3,10.8-5.3,10.8s0,0.3,0.1,0.8c5.3-1.9,12.5-5.5,12.9-8.1l-4.4-8.2l2-1.1l4.4,8.3l4.1,3.2l-1.4,1.8
						l-2.9-2.3c-2.4,4.4-12.1,8-14.3,8.7l-0.4-1.1c0,4.2-1.7,13.6-16.7,13.6c0,0,0.7,3.3,4.9,3.3s13.1-3.3,21.4-3.3l0.3,0.5h8.3V324
						l0.7-0.3c0.3-0.1,6.7-3.1,12-3.1v2.3c-3.9,0-8.7,1.9-10.4,2.6v6.9h-9.1l6.4,9.7l-5.9,5.8c0,0,3,2.7,7.1,2.7
						c0,0,11.2-7.5,12.9-5.8s9.6-1,9.6,23.9c0,0,3.6,4.9,3.6,8.2c0,3.3-2.2,3.9-2.2,3.9s13-2,21.6-2.6l-0.8-0.9L284.2,365.1z"/>
					<g>
						<path class="st1" d="M277.4,396.1c0,0,9.2-8.1,16.2-8.1s7.8,6.4,7.8,6.4s-8.3,11.5-12,11.5
							C289.4,405.9,285.8,396.1,277.4,396.1z"/>
					</g>
				</g>
				<g>
					<path class="st2" d="M339.1,373.4c-0.4-0.3-2.1-0.9-7.9-0.9h-7.8c0.2,2.1,0.9,3.6,2.1,4.4c2.4,1.6,6.2,0.4,7.2,0l0.2-0.1
						C335.8,375.8,338.6,374.2,339.1,373.4z"/>
				</g>
				<g>
					<path d="M271,218c0.1,0,0.2,0,0.2,0c0.6,2.4,2.6,8.5,6.3,8.5h16.7v1.9L284,238.9c-2.8,0.3-5.7,0.8-8,2v-7.1l-0.3-0.3
						c-0.1-0.1-6.7-6.6-6.7-12c0-1.6,0.3-2.7,1-3.1C270.3,218.1,270.7,218,271,218 M271,211.1c-1.9,0-3.7,0.6-5.2,1.6
						c-1.8,1.3-3.8,3.8-3.8,8.7c0,3.7,1.6,7.8,4.7,12c0.9,1.2,1.7,2.2,2.4,3.1v4.3v11.4l10.1-5.3c0.7-0.3,2.2-1,5.5-1.3l2.5-0.2
						l1.8-1.8l10.2-10.5l2-2v-2.8v-1.9v-6.9h-6.9h-15.1c-0.4-0.7-0.8-1.8-1.2-3.3l-1.2-4.7l-4.8-0.4
						C271.6,211.1,271.3,211.1,271,211.1L271,211.1z"/>
					<path class="st2" d="M294.3,226.5h-16.7c-3.7,0-5.7-6-6.3-8.5c-0.4,0-0.9,0-1.3,0.3c-0.7,0.5-1,1.6-1,3.1
						c0,5.4,6.7,11.9,6.7,12l0.3,0.3v7.1c2.3-1.2,5.2-1.8,8-2l10.2-10.5L294.3,226.5L294.3,226.5z"/>
				</g>
				<g>
					<path class="st2" d="M407.9,233.7c0,0-5.5-8.8-8.3-8.8v8.2l-16.2-16.2c0,0-0.3-10.9,4-10.9s9.5,6.5,9.5,6.5
						s-21.9-51.3-55.1-51.3l-6.1,3.7c0,0-9.8-15.6-25.7-15.6c0,0-0.8-5.2-51.5-5.2c0,0-39.3,0.9-53.4,14.9h5v5.7
						c0,0,12.3-3.3,19-3.3l-1.8,3.7l16.9,11.2c0,0,0.2,9.5-4.4,9.5c0,0-16.7-9.1-19.3-9.1s-15.4,2-15.4,2v-5.4
						c0,0-20.7-1.7-20.7,4.8l-15.2,16.4c6.1,1.7,15.3,4.1,18.2,4.4h0.6l-0.1,2.3c-0.2,0-0.3,0-0.6,0l-9.8-0.6l-10.3-0.5l0.1-1.1
						c0,0-25.5,22.4-25.5,45.2s3.2,23.2,5.9,23.2s3.2-11.7,15.3-11.7c0,0,8.1,3.6,13.5,3.6s5.9-2.6,5.9-2.6l11.9,6.9l-8.3,6.5
						c0,0,18.2,11.3,20.2,16.3c0,0,0.5-0.5,1,0l-0.2-0.3l7.4-5.9v-7.6l18.7-9.7l-5.1-7l2.6,0.3c1.7,0.2,6.5,0.4,8.4-1.3
						c0.5-0.4,0.7-1,0.7-1.7c0-4.8-11.2-16.9-18.3-16.9c-3.9,0-5.1,7.3-5.9,12.7c-0.7,4.4-1.1,7-3,7h-0.3c-1.5,0-3,0-4.2-1.1
						c-0.9-0.9-1.4-2.4-1.4-4.7c0-1.6-2.5-3.5-5.1-5.6c-4-3.1-8.5-6.7-8.5-11.9c0-7.3,6.6-13.7,9-15.7c-4.4-6.7-10.6-16-11-16.6
						l1.7-1.5c0.1,0.1,0.4,0.4,11.7,17.6l3.6,3.6l8-6.8c-0.6-0.2-1.2-0.5-1.8-1c-1.6-1.4-2.4-3.6-2.4-6.6c0-8.4,6.1-11.7,6.4-11.8
						l1.1,2c-0.2,0.1-5.2,2.8-5.2,9.8c0,2.3,0.5,4,1.6,4.9c0.9,0.7,1.9,0.9,2.5,0.9c4-4.8,9.3-11.8,10.6-14.9h-4.6v-2.3h7.2v1.1
						c0,3.5-8.1,13.6-11.1,17.1l16,15.3v0.5c0,8.9,3.5,13,5.4,14.7c1.6-4.5,8.1-10.6,10.2-12.5l-5.6-18.6h6.9
						c3.5,0,10.7-3.7,13.2-5.1l0.3-0.1l13.9-0.3l-0.3,1.4c0,0-0.2,1.2,0.7,2.2c1,1.2,3.2,1.9,6.3,1.9c6.2,0,14.5-4.4,18.9-7.1
						c-12.3-0.6-19.4-4.2-23-6.1c-0.9-0.5-2-1-2.3-1c-0.8,0-2,0.6-3.2,1.1c-1.5,0.7-3,1.4-4.6,1.4c-2.8,0-7.7-4-8.7-4.8l-0.4-0.3
						V191h18.2l4.3-4.4h-8.3v-5l-25.1-5.5l0.5-2.2c0,0,2.4,0.4,4-0.9c1.1-0.9,1.7-2.5,1.7-4.7c0-0.6-0.3-1.1-0.8-1.6
						c-4.3-4.1-22.6-4.1-29.2-3.7l-0.1-2.3c2.6-0.1,25.2-1.1,30.9,4.4c1,0.9,1.5,2,1.5,3.2c0,2.9-0.8,5.1-2.5,6.5
						c-0.1,0.1-0.2,0.2-0.3,0.3l21.8,4.8v4.6H292l-8.8,9h-16.8v0.7c2.1,1.7,5.4,3.9,6.8,3.9c1.1,0,2.4-0.6,3.6-1.2
						c1.4-0.6,2.8-1.3,4.1-1.3c0.8,0,1.8,0.5,3.4,1.3c4.1,2.1,11.7,5.9,25.8,5.9h3.7l-3,2.1c-0.6,0.4-13.9,9.5-23.4,9.5
						c-3.9,0-6.6-0.9-8.1-2.8c-0.8-0.9-1-1.9-1.1-2.7l-10.6,0.3c-0.9,0.5-4.1,2.2-7.4,3.6c1,1.5,2.5,4,2.5,6.4v0.3c0,0-1,4-1,10.5
						c0,4.4,7.9,8.7,12.4,10.7v-5.1c-1.5-1.5-7.1-7.7-7.1-13.3c0-2.4,0.7-4.1,2-5c1.7-1.2,3.9-0.5,4-0.5l0.6,0.2l0.1,0.6
						c0.7,3,2.5,7.4,4.3,7.4h18.9v5.1l-9.1,9.4c1.8,0,3.4,0,4.2,0c0,0,9.5,6.8,16,6.8h8.3c0,0,9.5,1.8,10.8,1.8s10.8-6.5,10.8-11.4
						s15.6-23.2,23.6-23.2s36.3,24,36.3,24v4.9h-4.9l14.4,27.5l2.7-1.7L407.9,233.7z"/>
				</g>
			</g>
			<g>
				<g>
					<path class="st2" d="M141.3,414c0,0,4.6-14.2,9.1-14.2l3.5,7.1l4.8-4.9c0,0,2.7,2.7,6.7,2.7c0,0,1.8,3.5,3.2,3.5
						s2.2-4.8,4.6-4.8s10.4,11.7,0,11.7c0,0-11.7,2.4-21,2.4C152.3,417.5,141.3,425.6,141.3,414z"/>
				</g>
				<g>
					<path class="st1" d="M182.8,407.8c0,0,1.9-9.4,6.2-9.4s4.2,9.4,4.2,9.4s-1.8,6.1-5.2,6.1S182.8,407.8,182.8,407.8z"/>
				</g>
				<g>
					<path class="st1" d="M113.7,380.8l-4.7,8.7l2.8,2.2C111.7,391.7,116.1,383.3,113.7,380.8z"/>
				</g>
				<g>
					<path class="st2" d="M141.2,278.4c0,0-0.8,16.4-16.8,22.6v58.3L117,370c0,0,3.3-0.8,3.3,3.7s0,14.8,0,14.8s1.2,2.1,8.8-6.6
						c0,0,0.2,7.8,2.3,9s5.7-7.8,9.9-8.2c4.1-0.4,0,12.7,3.7,12.7s10.7-4.1,12.3-1.6s-4.9,5.3,9.4,7c0,0,4.1,0,5.3,0
						s5.3-2.9,5.3-2.9s-0.4-12.3,0-14.4s11.1-7.8,7.4-12.7c-3.7-4.9-13.1-7-15.6-6.2l0.3,6.3l-18.2-2.8c0,0,3.2-23.7,3.4-31.1
						c0,0,17.8-12,28.4,2.6c0,0,5.7,11.8,9.5,12s17.6-5.1,21-4.4c3.4,0.6,10.6-15-9.1-15c0,0-9.1,9.3-17.8,3.2
						c-8.7-6.1-20.8-16.3-20.8-16.3s7.6,4.2,7.6,1.5c0-2.8,2.1-20.1-10.2-20.1v7.8c0,0-9.1-11-8.7-20.5S141.2,278.4,141.2,278.4z"/>
				</g>
				<g>
					<path d="M128.3,356.6l-1.9-8V304c0,0,0.6-3.8,6.7-3.8s9.1,6.2,9.1,6.2l3,24.7c0,0,5.4,4.6,5.4,14.3s-4.6,18.1-8.3,18.1
						l-6.3-6.3l10.8-10.8H144L128.3,356.6z"/>
				</g>
				<path class="st2" d="M138.4,396.5c0,0-14.5,13.3-8.8,23.4h4.3c0,0,6.1-0.8,6.1-8.8s0-14.6,0-14.6"/>
				<g>
					<path class="st2" d="M113,409c0,0-9.2-3.7,4-16.9c0,0,3.1,2.4,3.1,6c0,3.5,6-13.2,7.7-5c0.2,1.2,2.9,22.3-5.2,22.3
						s-5.5-8.4-5.5-8.4L113,409z"/>
				</g>
				<g>
					<path class="st2" d="M122.8,311.2c0,0-7.7,18.1-9.1,18.4s-10.8-8-6.8-15.1C110.8,307.4,122.8,311.2,122.8,311.2z"/>
				</g>
				<g>
					<path class="st2" d="M201.8,363.7c0,0,10.7,7.9,12.6,7.9c1.9,0,16.4-10.2,16.4-10.2s-18.9-5.4-18.9-4.8S204.8,357,201.8,363.7z
						"/>
				</g>
				<g>
					<path class="st2" d="M113.2,240.5c0,0,15.3-15,18.6-32.2s20-24.8,33.8-24.8s-30,39.3-31.2,42.4
						C133.3,229.1,138.7,240.5,113.2,240.5z"/>
				</g>
				<g>
					<path d="M134.3,227.3c-2.7-2.7-2-13.8-1.8-16v-0.5l10-8.2v-13.8h2.3v14.9l-10.1,8.2c-0.3,5-0.2,12.3,1.2,13.7L134.3,227.3z"/>
				</g>
			</g>
		</g>
	</g>
</g>
</svg>
